<?xml version="1.0" encoding="UTF-8" standalone="no"?>
<!-- Created with Inkscape (http://www.inkscape.org/) -->

<svg
   width="109.52438"
   height="26.78553"
   viewBox="0 0 28.978323 7.0870048"
   version="1.1"
   id="svg1"
   xml:space="preserve"
   xmlns="http://www.w3.org/2000/svg"
   xmlns:svg="http://www.w3.org/2000/svg"><defs
     id="defs1" /><g
     id="layer1"
     transform="translate(-3.1491761,-11.339471)"><g
       id="g2"
       transform="matrix(0.12499997,0,0,0.12499997,2.8184414,9.85285)"><g
         id="g51"
         transform="translate(-48.672968,-13.343522)"><path
           d="m 78.991591,68.854609 -0.104387,-16.00419 -0.189135,-0.136426 -10.402982,7.847066 0.184484,0.147794 -5.827034,20.011181 z"
           style="fill:#ff5e00;stroke-width:2.64583"
           id="path51" /><path
           d="m 92.407726,60.686732 -10.874788,-7.836214 0.104387,16.00419 0.04806,-0.03462 16.317349,12.005468 -5.710245,-20.047871 z"
           style="fill:#ff5e00;stroke-width:2.64583"
           id="path50" /><path
           d="m 89.553071,46.196661 -6.699333,5.053438 0.0021,0.277503 10.874788,7.836214 15.796454,-12.500529 -19.916099,-0.490409 z"
           style="fill:#ff5e00;stroke-width:2.64583"
           id="path49" /><path
           d="m 80.481905,25.236486 -6.598563,19.74453 -0.86403,0.0155 7.00164,5.04517 0.187068,-0.141077 v 0 l 6.699333,-5.053438 z"
           style="fill:#ff5e00;stroke-width:2.64583"
           id="path48" /><path
           d="m 66.972153,59.238242 10.402982,-7.847066 -7.00164,-5.04517 -19.05465,0.346749 z"
           style="fill:#ff5e00;stroke-width:2.64583"
           id="path47" /></g><text
         xml:space="preserve"
         style="font-style:normal;font-variant:normal;font-weight:500;font-stretch:normal;font-size:50.8px;line-height:1;font-family:'霞鹜文楷';-inkscape-font-specification:'霞鹜文楷 Medium';writing-mode:lr-tb;direction:ltr;fill:#ff5e00;fill-opacity:1;stroke:#62a0ea;stroke-width:0.264583"
         x="57.657921"
         y="56.760551"
         id="text1"><tspan
           id="tspan1"
           style="font-style:normal;font-variant:normal;font-weight:500;font-stretch:normal;font-size:50.8px;font-family:'霞鹜文楷等宽';-inkscape-font-specification:'霞鹜文楷等宽 Medium';fill:#ff5e00;fill-opacity:1;stroke:none;stroke-width:0.264583"
           x="57.657921"
           y="56.760551">Aaronhu</tspan></text><path
         style="fill:none;fill-opacity:1;stroke:#ff5e00;stroke-width:3.04274;stroke-linecap:round;stroke-linejoin:miter;stroke-dasharray:none;stroke-opacity:1"
         d="M 59.312628,62.119258 232.95115,61.346122"
         id="path1" /><path
         style="fill:none;fill-opacity:1;stroke:#ff5e00;stroke-width:3.04274;stroke-linecap:round;stroke-linejoin:miter;stroke-dasharray:none;stroke-opacity:1"
         d="M 59.312628,67.067652 232.95115,66.294516"
         id="path2" /></g></g></svg>
