<?xml version="1.0" encoding="UTF-8" standalone="no"?>
<!-- Created with Inkscape (http://www.inkscape.org/) -->

<svg
   width="109.52438"
   height="26.78553"
   viewBox="0 0 28.978323 7.0870048"
   version="1.1"
   id="svg1"
   xml:space="preserve"
   xmlns="http://www.w3.org/2000/svg"
   xmlns:svg="http://www.w3.org/2000/svg"><defs
     id="defs1" /><g
     id="layer1"
     transform="translate(-3.1491761,-11.339471)"><g
       id="g1"
       transform="matrix(0.12499997,0,0,0.12499997,2.7555291,9.9220366)"><g
         id="g51"
         transform="translate(-48.169669,-13.897016)"><path
           d="m 78.991591,68.854609 -0.104387,-16.00419 -0.189135,-0.136426 -10.402982,7.847066 0.184484,0.147794 -5.827034,20.011181 z"
           style="fill:#ff5e00;stroke-width:2.64583"
           id="path51" /><path
           d="m 92.407726,60.686732 -10.874788,-7.836214 0.104387,16.00419 0.04806,-0.03462 16.317349,12.005468 -5.710245,-20.047871 z"
           style="fill:#ff5e00;stroke-width:2.64583"
           id="path50" /><path
           d="m 89.553071,46.196661 -6.699333,5.053438 0.0021,0.277503 10.874788,7.836214 15.796454,-12.500529 -19.916099,-0.490409 z"
           style="fill:#ff5e00;stroke-width:2.64583"
           id="path49" /><path
           d="m 80.481905,25.236486 -6.598563,19.74453 -0.86403,0.0155 7.00164,5.04517 0.187068,-0.141077 v 0 l 6.699333,-5.053438 z"
           style="fill:#ff5e00;stroke-width:2.64583"
           id="path48" /><path
           d="m 66.972153,59.238242 10.402982,-7.847066 -7.00164,-5.04517 -19.05465,0.346749 z"
           style="fill:#ff5e00;stroke-width:2.64583"
           id="path47" /></g><path
         style="font-weight:500;font-size:50.8px;line-height:1;font-family:'霞鹜文楷等宽';-inkscape-font-specification:'霞鹜文楷等宽 Medium';fill:#ff5e00;stroke-width:0.264583"
         d="m 80.10682,56.918258 q -1.1684,0 -1.7272,-0.8128 -0.4064,-1.778 -3.048,-11.5824 l -9.0424,0.5588 q -0.4572,1.6764 -1.8288,6.1976 l -1.1176,4.4704 q -0.4064,1.1176 -2.336799,1.1176 -0.7112,0 -1.4224,-0.3048 -0.6604,-0.3048 -0.6604,-0.9652 0,-0.254 0.2032,-0.6604 1.7272,-3.8608 3.301999,-9.4488 0.0508,0 0.0508,-0.0508 h -0.2032 q -0.6096,0 -0.965199,-0.5588 -0.3556,-0.5588 -0.6096,-1.1684 -0.2032,-0.6604 -0.2032,-1.2192 0,-1.0668 0.9652,-1.0668 l 2.082799,0.3048 q 4.9784,-17.3228 5.334,-20.2184 0.1524,-0.8636 0.4572,-1.27 0.3048,-0.4572 1.1684,-0.4572 0.8636,0 1.9304,0.508 1.0668,0.508 1.27,1.0668 0.1016,0.1016 0.1016,0.3556 0,0.254 -0.1016,0.5588 -0.0508,0.254 -0.0508,0.4572 0,0.2032 0.8128,3.4544 6.1468,25.3492 8.128,28.6004 0.2032,0.254 0.2032,0.5588 0,0.762 -0.9144,1.1684 -0.9144,0.4064 -1.778,0.4064 z m -12.9032,-15.3416 7.2644,-0.4064 -3.3528,-13.8176 z m 26.2636,15.8496 q -3.6068,0 -5.7404,-2.6416 -2.0828,-2.6416 -2.0828,-7.4676 0,-6.5532 3.6576,-11.3284 3.6576,-4.7752 8.128,-4.7752 3.8608,0 4.572,1.5748 v -0.7112 q 0,-0.8128 1.4224,-0.8128 0.8636,0 1.8796,0.4572 1.0668,0.4064 1.0668,1.2192 -0.254,2.3876 -0.4572,7.7216 -0.1524,4.1148 -0.1524,5.7404 0,5.08 1.6256,7.9756 l 0.1016,0.3556 q 0,0.6096 -0.7112,1.524 -0.7112,0.9144 -1.778,0.9144 -1.016,0 -1.6256,-1.1684 -0.5588,-1.2192 -0.8636,-2.6924 l -0.254,-1.4732 q -1.016,2.0828 -3.556,3.8608 -2.4892,1.7272 -5.2324,1.7272 z m -0.0508,-3.6576 q 2.032,0 3.8608,-1.4732 4.6228,-3.7084 4.6228,-12.8524 v -1.4224 q 0.1016,-0.1016 0.1016,-0.2032 0,-0.1524 -0.4572,-0.1524 -0.4064,0 -0.6604,-0.4064 -1.3716,-2.4892 -3.4544,-2.4892 -2.54,0 -5.1308,3.4544 -2.5908,3.4544 -2.5908,8.8392 0,6.7056 3.7084,6.7056 z m 23.4696,3.2512 q -0.8636,0 -1.9304,-0.4572 -1.0668,-0.4064 -1.0668,-1.27 l 0.1016,-3.2004 q 0,-15.0876 -0.0508,-16.1036 -0.1016,-2.8448 -0.1016,-3.8608 0.1016,-0.8128 1.3208,-0.8128 0.8636,0 1.9304,0.4572 1.0668,0.4064 1.0668,1.27 0,1.016 -0.0508,1.3716 2.0828,-3.2004 7.112,-3.2004 3.1496,0 5.2324,1.778 0.9144,0.8128 0.9144,1.5748 0,0.9144 -0.6604,1.9304 -0.6604,1.016 -1.4732,1.016 -0.508,0 -0.9652,-0.6604 -0.508,-0.8636 -1.524,-1.27 -0.9652,-0.4572 -1.6764,-0.4572 -2.032,0 -3.7592,1.27 -3.302,2.3876 -3.302,9.6012 -0.0508,1.9304 -0.0508,4.826 0,1.5748 0.1016,3.048 0.1524,1.4732 0.1524,2.3368 0,0.8128 -1.3208,0.8128 z m 29.464,0.4064 q -4.826,0 -7.4676,-3.2004 -2.6416,-3.2004 -2.6416,-8.5344 0,-2.2352 0.6604,-4.4704 0.7112,-2.2352 1.6256,-4.064 0.9652,-1.8796 1.9812,-3.0988 1.016,-1.2192 1.7272,-1.2192 0.8128,0 0.9144,0.1524 1.9812,-1.778 5.2832,-1.778 5.5372,0 8.1788,5.8928 1.1176,2.6924 1.1176,6.6548 0,4.9276 -2.794,9.1948 -3.2004,4.4704 -8.5852,4.4704 z m 0,-3.7084 q 4.1656,0 6.4008,-4.7752 1.016,-2.3368 1.016,-5.1816 0,-4.1656 -1.4224,-6.5024 -1.4224,-2.3876 -4.2164,-2.3876 -3.302,0 -5.588,3.4544 -2.286,3.4036 -2.286,7.3152 0,8.0772 6.096,8.0772 z m 19.2532,3.3528 q -0.8636,0 -1.8796,-0.4572 -0.9652,-0.4572 -0.9652,-1.27 0,-1.3716 0.1016,-3.6068 v -15.5956 q -0.1524,-3.2004 -0.1524,-3.8608 0,-0.8128 1.3208,-0.8128 0.8636,0 1.8288,0.4572 1.016,0.4572 1.016,1.27 l -0.0508,2.1336 q 0.6096,-1.0668 3.048,-2.54 2.4384,-1.524 5.1308,-1.524 4.4196,0 6.0452,3.4036 1.1684,2.4892 1.1684,6.4516 0,10.0584 0.0508,11.1252 0.1016,2.286 0.1016,4.064 0,0.762 -1.3208,0.762 -0.8636,0 -1.8796,-0.4572 -0.9652,-0.4572 -0.9652,-1.27 0.0508,-0.4064 0.0508,-1.3716 0,-1.016 0.0508,-2.032 v -10.6172 q 0,-2.9972 -0.7112,-4.6228 -0.6604,-1.6764 -2.5908,-1.6764 -3.3528,0 -5.588,2.6924 -2.1336,2.6924 -2.3876,6.858 -0.2032,2.3368 -0.2032,7.62 0,1.1684 0.1016,4.1148 0,0.762 -1.3208,0.762 z m 25.4508,0 q -0.8636,0 -1.8288,-0.4572 -0.9652,-0.4572 -0.9652,-1.27 l 0.0508,-3.6068 q 0,-26.0096 -0.0508,-27.0764 0,-1.0668 -0.0508,-2.1844 0,-1.1684 0,-1.6764 0,-0.8128 1.3208,-0.8128 0.8636,0 1.8288,0.4572 1.016,0.4572 1.016,1.27 -0.1016,6.7056 -0.1016,13.716 0.6604,-1.1684 3.0988,-2.6416 2.4384,-1.524 5.1308,-1.524 4.3688,0 6.0452,3.4036 1.1684,2.4384 1.1684,6.4516 0,9.0932 0.1524,15.1892 0,0.762 -1.3208,0.762 -0.8636,0 -1.8796,-0.4572 -0.9652,-0.4572 -0.9652,-1.27 l 0.1016,-3.4036 v -10.6172 q 0,-2.9464 -0.7112,-4.6228 -0.6604,-1.6764 -2.5908,-1.6764 -3.3528,0 -5.588,2.6924 -2.1336,2.6924 -2.3876,6.858 -0.2032,2.1336 -0.254,5.7912 0,3.048 0.0508,4.6736 l 0.0508,1.27 q 0,0.762 -1.3208,0.762 z m 29.92119,0.3556 q -7.3152,0 -7.3152,-9.906 0,-10.16 -0.1524,-15.3924 0.1016,-0.8128 1.3716,-0.8128 0.8636,0 1.8796,0.4572 1.016,0.4572 1.016,1.27 -0.1016,5.8928 -0.1016,14.2748 0,2.8956 0.8636,4.6736 0.9144,1.778 2.4384,1.778 1.6764,0 3.4036,-1.5748 1.778,-1.5748 3.048,-4.5212 1.27,-2.9464 1.4732,-6.7564 0.0508,-0.8636 0.0508,-8.8392 0,-0.8128 1.4224,-0.8128 0.8636,0 1.8288,0.4572 1.016,0.4064 1.016,1.2192 -0.508,3.8608 -0.508,11.2268 0,7.0612 1.7272,10.2108 l 0.0508,0.3556 q 0,0.6096 -0.7112,1.524 -0.7112,0.9144 -1.778,0.9144 -1.4732,0 -2.0828,-2.4384 -0.5588,-2.4892 -0.6096,-2.4892 -0.508,1.1684 -2.8956,3.2004 -2.3876,1.9812 -5.4356,1.9812 z"
         id="text1"
         aria-label="Aaronhu" /><path
         style="fill:none;fill-opacity:1;stroke:#ff5e00;stroke-width:3.04274;stroke-linecap:round;stroke-linejoin:miter;stroke-dasharray:none;stroke-opacity:1"
         d="M 59.815927,61.565764 233.45445,60.792628"
         id="path1" /><path
         style="fill:none;fill-opacity:1;stroke:#ff5e00;stroke-width:3.04274;stroke-linecap:round;stroke-linejoin:miter;stroke-dasharray:none;stroke-opacity:1"
         d="M 59.815927,66.514158 233.45445,65.741022"
         id="path2" /></g></g></svg>
